<svg width="30" height="30" viewBox="0 0 30 30" fill="none" xmlns="http://www.w3.org/2000/svg">
<path d="M30 15C30 23.2843 23.2843 30 15 30C6.71573 30 0 23.2843 0 15C0 6.71573 6.71573 0 15 0C23.2843 0 30 6.71573 30 15Z" fill="#7289DA"/>
<path d="M20.1686 8.25H9.83143C8.95971 8.25 8.25 8.94 8.25 9.795V19.935C8.25 20.79 8.95971 21.48 9.83143 21.48H18.5794L18.1706 20.0925L19.158 20.985L20.0914 21.825L21.75 23.25V9.795C21.75 8.94 21.0403 8.25 20.1686 8.25ZM17.1909 18.045C17.1909 18.045 16.9131 17.7225 16.6817 17.4375C17.6923 17.16 18.078 16.545 18.078 16.545C17.7617 16.7475 17.4609 16.89 17.1909 16.9875C16.8051 17.145 16.4349 17.25 16.0723 17.31C15.3317 17.445 14.6529 17.4075 14.0743 17.3025C13.6346 17.22 13.2566 17.1 12.9403 16.98C12.7629 16.9125 12.57 16.83 12.3771 16.725C12.354 16.71 12.3309 16.7025 12.3077 16.6875C12.2923 16.68 12.2846 16.6725 12.2769 16.665C12.138 16.59 12.0609 16.5375 12.0609 16.5375C12.0609 16.5375 12.4311 17.1375 13.4109 17.4225C13.1794 17.7075 12.894 18.045 12.894 18.045C11.1891 17.9925 10.5411 16.905 10.5411 16.905C10.5411 14.49 11.652 12.5325 11.652 12.5325C12.7629 11.7225 13.8197 11.745 13.8197 11.745L13.8969 11.835C12.5083 12.225 11.868 12.8175 11.868 12.8175C11.868 12.8175 12.0377 12.7275 12.3231 12.6C13.1486 12.2475 13.8043 12.15 14.0743 12.1275C14.1206 12.12 14.1591 12.1125 14.2054 12.1125C14.676 12.0525 15.2083 12.0375 15.7637 12.0975C16.4966 12.18 17.2834 12.39 18.0857 12.8175C18.0857 12.8175 17.4763 12.255 16.1649 11.865L16.2729 11.745C16.2729 11.745 17.3297 11.7225 18.4406 12.5325C18.4406 12.5325 19.5514 14.49 19.5514 16.905C19.5514 16.905 18.8957 17.9925 17.1909 18.045ZM13.6037 14.5425C13.164 14.5425 12.8169 14.9175 12.8169 15.375C12.8169 15.8325 13.1717 16.2075 13.6037 16.2075C14.0434 16.2075 14.3906 15.8325 14.3906 15.375C14.3983 14.9175 14.0434 14.5425 13.6037 14.5425ZM16.4194 14.5425C15.9797 14.5425 15.6326 14.9175 15.6326 15.375C15.6326 15.8325 15.9874 16.2075 16.4194 16.2075C16.8591 16.2075 17.2063 15.8325 17.2063 15.375C17.2063 14.9175 16.8591 14.5425 16.4194 14.5425Z" fill="white"/>
</svg>
